<mxfile host="app.diagrams.net" agent="Mozilla/5.0 (Windows NT 10.0; Win64; x64) AppleWebKit/537.36 (KHTML, like Gecko) Chrome/138.0.0.0 Safari/537.36" version="28.0.7">
  <diagram name="Page-1" id="LQrka3RXtTwaJQfLbMm_">
    <mxGraphModel dx="2066" dy="819" grid="0" gridSize="10" guides="0" tooltips="1" connect="0" arrows="0" fold="1" page="1" pageScale="1" pageWidth="850" pageHeight="1100" math="0" shadow="0">
      <root>
        <mxCell id="0" />
        <mxCell id="1" parent="0" />
        <mxCell id="UJHYyGYnTlQYwypEruZN-3" value="Пользователь (Web / TV / Mobile)" style="shape=actor;verticalLabelPosition=bottom;verticalAlign=top;" vertex="1" parent="1">
          <mxGeometry x="403" y="13" width="80" height="80" as="geometry" />
        </mxCell>
        <mxCell id="UJHYyGYnTlQYwypEruZN-4" value="Frontend (React Native / Web / TV)" style="shape=rectangle;whiteSpace=wrap;html=1;fillColor=#FCF8E3;" vertex="1" parent="1">
          <mxGeometry x="363" y="163" width="160" height="60" as="geometry" />
        </mxCell>
        <mxCell id="UJHYyGYnTlQYwypEruZN-5" value="API Gateway (REST, Helm)" style="shape=rectangle;whiteSpace=wrap;html=1;fillColor=#D9EDF7;" vertex="1" parent="1">
          <mxGeometry x="363" y="263" width="160" height="60" as="geometry" />
        </mxCell>
        <mxCell id="UJHYyGYnTlQYwypEruZN-6" value="Users Service (Go + PostgreSQL)" style="shape=rectangle;whiteSpace=wrap;html=1;" vertex="1" parent="1">
          <mxGeometry x="408" y="383" width="180" height="60" as="geometry" />
        </mxCell>
        <mxCell id="UJHYyGYnTlQYwypEruZN-7" value="Subscriptions Service (Go + PostgreSQL)" style="shape=rectangle;whiteSpace=wrap;html=1;" vertex="1" parent="1">
          <mxGeometry x="598" y="383" width="180" height="60" as="geometry" />
        </mxCell>
        <mxCell id="UJHYyGYnTlQYwypEruZN-8" value="Metadata Service (Go + PostgreSQL)" style="shape=rectangle;whiteSpace=wrap;html=1;" vertex="1" parent="1">
          <mxGeometry x="213" y="383" width="180" height="60" as="geometry" />
        </mxCell>
        <mxCell id="UJHYyGYnTlQYwypEruZN-9" value="Content Service (Go + S3)" style="shape=rectangle;whiteSpace=wrap;html=1;" vertex="1" parent="1">
          <mxGeometry x="18" y="383" width="180" height="60" as="geometry" />
        </mxCell>
        <mxCell id="UJHYyGYnTlQYwypEruZN-10" value="Kafka" style="ellipse;whiteSpace=wrap;html=1;fillColor=#FCE5CD;" vertex="1" parent="1">
          <mxGeometry x="588" y="503" width="80" height="60" as="geometry" />
        </mxCell>
        <mxCell id="UJHYyGYnTlQYwypEruZN-11" value="Рекомендательная система" style="shape=rectangle;whiteSpace=wrap;html=1;fillColor=#F2DEDE;" vertex="1" parent="1">
          <mxGeometry x="618" y="33" width="200" height="60" as="geometry" />
        </mxCell>
        <mxCell id="UJHYyGYnTlQYwypEruZN-12" value="Платёжные системы" style="shape=rectangle;whiteSpace=wrap;html=1;fillColor=#F2DEDE;" vertex="1" parent="1">
          <mxGeometry x="1008" y="33" width="160" height="60" as="geometry" />
        </mxCell>
        <mxCell id="UJHYyGYnTlQYwypEruZN-13" value="S3 (хранилище видео)" style="shape=cylinder;whiteSpace=wrap;html=1;" vertex="1" parent="1">
          <mxGeometry x="38" y="553" width="140" height="60" as="geometry" />
        </mxCell>
        <mxCell id="UJHYyGYnTlQYwypEruZN-14" value="Онлайн-кинотеатры" style="shape=rectangle;whiteSpace=wrap;html=1;fillColor=#F2DEDE;" vertex="1" parent="1">
          <mxGeometry x="28" y="33" width="160" height="60" as="geometry" />
        </mxCell>
        <mxCell id="UJHYyGYnTlQYwypEruZN-15" style="endArrow=block" edge="1" parent="1" source="UJHYyGYnTlQYwypEruZN-3" target="UJHYyGYnTlQYwypEruZN-4">
          <mxGeometry relative="1" as="geometry" />
        </mxCell>
        <mxCell id="UJHYyGYnTlQYwypEruZN-16" style="endArrow=block" edge="1" parent="1" source="UJHYyGYnTlQYwypEruZN-4" target="UJHYyGYnTlQYwypEruZN-5">
          <mxGeometry relative="1" as="geometry" />
        </mxCell>
        <mxCell id="UJHYyGYnTlQYwypEruZN-17" style="endArrow=block" edge="1" parent="1" source="UJHYyGYnTlQYwypEruZN-5" target="UJHYyGYnTlQYwypEruZN-6">
          <mxGeometry relative="1" as="geometry" />
        </mxCell>
        <mxCell id="UJHYyGYnTlQYwypEruZN-18" style="endArrow=block" edge="1" parent="1" source="UJHYyGYnTlQYwypEruZN-5" target="UJHYyGYnTlQYwypEruZN-7">
          <mxGeometry relative="1" as="geometry" />
        </mxCell>
        <mxCell id="UJHYyGYnTlQYwypEruZN-19" style="endArrow=block;entryX=0.25;entryY=0;entryDx=0;entryDy=0;edgeStyle=orthogonalEdgeStyle;" edge="1" parent="1" source="UJHYyGYnTlQYwypEruZN-5" target="UJHYyGYnTlQYwypEruZN-29">
          <mxGeometry relative="1" as="geometry" />
        </mxCell>
        <mxCell id="UJHYyGYnTlQYwypEruZN-20" style="endArrow=block" edge="1" parent="1" source="UJHYyGYnTlQYwypEruZN-5" target="UJHYyGYnTlQYwypEruZN-8">
          <mxGeometry relative="1" as="geometry" />
        </mxCell>
        <mxCell id="UJHYyGYnTlQYwypEruZN-21" style="endArrow=block" edge="1" parent="1" source="UJHYyGYnTlQYwypEruZN-5" target="UJHYyGYnTlQYwypEruZN-9">
          <mxGeometry relative="1" as="geometry" />
        </mxCell>
        <mxCell id="UJHYyGYnTlQYwypEruZN-22" style="endArrow=block;edgeStyle=orthogonalEdgeStyle;" edge="1" parent="1" source="UJHYyGYnTlQYwypEruZN-6" target="UJHYyGYnTlQYwypEruZN-10">
          <mxGeometry relative="1" as="geometry" />
        </mxCell>
        <mxCell id="UJHYyGYnTlQYwypEruZN-23" style="endArrow=block;edgeStyle=orthogonalEdgeStyle;" edge="1" parent="1" source="UJHYyGYnTlQYwypEruZN-7" target="UJHYyGYnTlQYwypEruZN-10">
          <mxGeometry relative="1" as="geometry" />
        </mxCell>
        <mxCell id="UJHYyGYnTlQYwypEruZN-24" style="endArrow=block;edgeStyle=orthogonalEdgeStyle;" edge="1" parent="1" source="UJHYyGYnTlQYwypEruZN-29" target="UJHYyGYnTlQYwypEruZN-10">
          <mxGeometry relative="1" as="geometry">
            <Array as="points">
              <mxPoint x="1088" y="473" />
              <mxPoint x="628" y="473" />
            </Array>
          </mxGeometry>
        </mxCell>
        <mxCell id="UJHYyGYnTlQYwypEruZN-25" style="endArrow=block;edgeStyle=orthogonalEdgeStyle;" edge="1" parent="1" source="UJHYyGYnTlQYwypEruZN-8" target="UJHYyGYnTlQYwypEruZN-10">
          <mxGeometry relative="1" as="geometry">
            <Array as="points">
              <mxPoint x="303" y="473" />
              <mxPoint x="628" y="473" />
            </Array>
          </mxGeometry>
        </mxCell>
        <mxCell id="UJHYyGYnTlQYwypEruZN-26" style="endArrow=block;exitX=1;exitY=0.25;exitDx=0;exitDy=0;" edge="1" parent="1" source="UJHYyGYnTlQYwypEruZN-5" target="UJHYyGYnTlQYwypEruZN-11">
          <mxGeometry relative="1" as="geometry" />
        </mxCell>
        <mxCell id="UJHYyGYnTlQYwypEruZN-27" style="endArrow=block" edge="1" parent="1" source="UJHYyGYnTlQYwypEruZN-9" target="UJHYyGYnTlQYwypEruZN-13">
          <mxGeometry relative="1" as="geometry" />
        </mxCell>
        <mxCell id="UJHYyGYnTlQYwypEruZN-28" style="endArrow=block;edgeStyle=orthogonalEdgeStyle;" edge="1" parent="1" source="UJHYyGYnTlQYwypEruZN-9" target="UJHYyGYnTlQYwypEruZN-14">
          <mxGeometry relative="1" as="geometry" />
        </mxCell>
        <mxCell id="UJHYyGYnTlQYwypEruZN-29" value="Payments Service (Go + PostgreSQL)" style="shape=rectangle;whiteSpace=wrap;html=1;" vertex="1" parent="1">
          <mxGeometry x="998" y="383" width="180" height="60" as="geometry" />
        </mxCell>
        <mxCell id="UJHYyGYnTlQYwypEruZN-30" style="endArrow=block;exitX=0.5;exitY=1;exitDx=0;exitDy=0;entryX=0.563;entryY=-0.1;entryDx=0;entryDy=0;edgeStyle=orthogonalEdgeStyle;entryPerimeter=0;" edge="1" parent="1" source="UJHYyGYnTlQYwypEruZN-9" target="UJHYyGYnTlQYwypEruZN-10">
          <mxGeometry relative="1" as="geometry">
            <mxPoint x="538" y="493" as="sourcePoint" />
            <mxPoint x="746" y="570" as="targetPoint" />
            <Array as="points">
              <mxPoint x="188" y="443" />
              <mxPoint x="188" y="473" />
              <mxPoint x="628" y="473" />
              <mxPoint x="628" y="497" />
            </Array>
          </mxGeometry>
        </mxCell>
        <mxCell id="UJHYyGYnTlQYwypEruZN-31" value="" style="endArrow=block;exitX=0.345;exitY=1.05;exitDx=0;exitDy=0;exitPerimeter=0;entryX=1;entryY=0.25;entryDx=0;entryDy=0;" edge="1" parent="1" source="UJHYyGYnTlQYwypEruZN-11" target="UJHYyGYnTlQYwypEruZN-5">
          <mxGeometry relative="1" as="geometry">
            <mxPoint x="748" y="528" as="sourcePoint" />
            <mxPoint x="658" y="283" as="targetPoint" />
          </mxGeometry>
        </mxCell>
        <mxCell id="UJHYyGYnTlQYwypEruZN-32" value="Recommendations Service (Go + PostgreSQL)" style="shape=rectangle;whiteSpace=wrap;html=1;" vertex="1" parent="1">
          <mxGeometry x="788" y="383" width="180" height="60" as="geometry" />
        </mxCell>
        <mxCell id="UJHYyGYnTlQYwypEruZN-33" style="endArrow=block;entryX=0.144;entryY=-0.05;entryDx=0;entryDy=0;entryPerimeter=0;exitX=1;exitY=0.5;exitDx=0;exitDy=0;" edge="1" parent="1" source="UJHYyGYnTlQYwypEruZN-5" target="UJHYyGYnTlQYwypEruZN-32">
          <mxGeometry relative="1" as="geometry">
            <mxPoint x="528" y="313" as="sourcePoint" />
            <mxPoint x="1173" y="421" as="targetPoint" />
          </mxGeometry>
        </mxCell>
        <mxCell id="UJHYyGYnTlQYwypEruZN-34" style="endArrow=block;edgeStyle=orthogonalEdgeStyle;entryX=0.488;entryY=-0.1;entryDx=0;entryDy=0;entryPerimeter=0;exitX=0.5;exitY=1;exitDx=0;exitDy=0;" edge="1" parent="1" source="UJHYyGYnTlQYwypEruZN-32" target="UJHYyGYnTlQYwypEruZN-10">
          <mxGeometry relative="1" as="geometry">
            <mxPoint x="778" y="493" as="sourcePoint" />
            <mxPoint x="718" y="553" as="targetPoint" />
          </mxGeometry>
        </mxCell>
        <mxCell id="UJHYyGYnTlQYwypEruZN-35" value="" style="endArrow=classic;startArrow=classic;html=1;rounded=0;exitX=0.5;exitY=0;exitDx=0;exitDy=0;entryX=0.5;entryY=1;entryDx=0;entryDy=0;" edge="1" parent="1" source="UJHYyGYnTlQYwypEruZN-29" target="UJHYyGYnTlQYwypEruZN-12">
          <mxGeometry width="50" height="50" relative="1" as="geometry">
            <mxPoint x="1048" y="193" as="sourcePoint" />
            <mxPoint x="1098" y="143" as="targetPoint" />
          </mxGeometry>
        </mxCell>
      </root>
    </mxGraphModel>
  </diagram>
</mxfile>
